<svg xmlns="http://www.w3.org/2000/svg" width="46" height="55"><path d="M14.114 7.378C12.106 9.516 12 10.641 12 29.814V50h4.958l.271-19.737c.245-17.877.436-19.769 2.021-20.073C20.87 9.878 21 11.348 21 29.927V50h4.958l.271-19.737c.245-17.877.436-19.769 2.021-20.073C29.87 9.878 30 11.348 30 29.927V50h6.114l-.307-20.467c-.37-24.685.025-23.869-11.699-24.19-7.032-.192-8.107.027-9.994 2.035" fill="#dfb44e" fill-rule="evenodd"/><path d="M0 27.518v27.519l23.25-.269L46.5 54.5l.266-27.25L47.032 0H0v27.518M.439 28c0 15.125.139 21.313.309 13.75.169-7.562.169-19.937 0-27.5C.578 6.688.439 12.875.439 28M14.114 7.378C12.106 9.516 12 10.641 12 29.814V50h4.958l.271-19.737c.245-17.877.436-19.769 2.021-20.073C20.87 9.878 21 11.348 21 29.927V50h4.958l.271-19.737c.245-17.877.436-19.769 2.021-20.073C29.87 9.878 30 11.348 30 29.927V50h6.114l-.307-20.467c-.37-24.685.025-23.869-11.699-24.19-7.032-.192-8.107.027-9.994 2.035" fill="#0c0c04" fill-rule="evenodd"/></svg>