<svg xmlns="http://www.w3.org/2000/svg" width="46" height="55" viewBox="0 0 46 55" version="1.1"><path d="M 14.114 7.378 C 12.106 9.516, 12 10.641, 12 29.814 L 12 50 14.479 50 L 16.958 50 17.229 30.263 C 17.474 12.386, 17.665 10.494, 19.250 10.190 C 20.870 9.878, 21 11.348, 21 29.927 L 21 50 23.479 50 L 25.958 50 26.229 30.263 C 26.474 12.386, 26.665 10.494, 28.250 10.190 C 29.870 9.878, 30 11.348, 30 29.927 L 30 50 33.057 50 L 36.114 50 35.807 29.533 C 35.437 4.848, 35.832 5.664, 24.108 5.343 C 17.076 5.151, 16.001 5.370, 14.114 7.378" stroke="none" fill="#dfb44e" fill-rule="evenodd"/><path d="M 0 27.518 L 0 55.037 23.250 54.768 L 46.500 54.500 46.766 27.250 L 47.032 0 23.516 0 L 0 0 0 27.518 M 0.439 28 C 0.439 43.125, 0.578 49.313, 0.748 41.750 C 0.917 34.188, 0.917 21.813, 0.748 14.250 C 0.578 6.688, 0.439 12.875, 0.439 28 M 14.114 7.378 C 12.106 9.516, 12 10.641, 12 29.814 L 12 50 14.479 50 L 16.958 50 17.229 30.263 C 17.474 12.386, 17.665 10.494, 19.250 10.190 C 20.870 9.878, 21 11.348, 21 29.927 L 21 50 23.479 50 L 25.958 50 26.229 30.263 C 26.474 12.386, 26.665 10.494, 28.250 10.190 C 29.870 9.878, 30 11.348, 30 29.927 L 30 50 33.057 50 L 36.114 50 35.807 29.533 C 35.437 4.848, 35.832 5.664, 24.108 5.343 C 17.076 5.151, 16.001 5.370, 14.114 7.378" stroke="none" fill="#0c0c04" fill-rule="evenodd"/></svg>